<svg xmlns="http://www.w3.org/2000/svg" width="256" height="256"><path fill="#5e0040" fill-opacity=".016" fill-rule="evenodd" d="M0 128.004v128.004l128.25-.254 128.25-.254.254-127.75L257.008 0H0zm.485.496c0 70.4.119 99.053.265 63.672s.146-92.98 0-128S.485 58.1.485 128.5"/><path fill="#5e0040" fill-opacity=".139" fill-rule="evenodd" d="M34.798 1.931C19.192 6.921 6.631 19.527 1.968 34.88.009 41.328-.036 43.794.229 130L.5 218.5l2.312 5.725c5.05 12.5 16.463 23.913 28.963 28.963L37.5 255.5l88.5.271c85.76.263 88.701.21 95-1.708 14.961-4.557 28.082-17.206 32.469-31.3.901-2.895 2.064-6.044 2.584-6.999 1.087-1.993 1.347-177.498.262-176.413-.376.377-1.446-1.777-2.377-4.785-4.686-15.148-17.43-27.858-32.643-32.557C214.984.06 212.179.002 127.645.054 46.154.104 40.13.226 34.798 1.931M.479 128c0 48.675.122 68.588.271 44.25s.149-64.162 0-88.5S.479 79.325.479 128"/><path fill="#5e0040" fill-opacity=".449" fill-rule="evenodd" d="M37.265 1.542c-17.134 4.614-31.268 18.853-35.734 36-2.266 8.699-2.301 172.08-.039 180.765 4.548 17.464 18.678 31.637 36.05 36.162C42.596 255.785 55.278 256 128 256c91.92 0 89.928.111 101.237-5.62 11.459-5.807 23.623-21.396 25.409-32.565.339-2.123 1.008-4.101 1.485-4.396.481-.297.869-38.952.869-86.537 0-48.896-.378-85.767-.875-85.459-.481.297-1.15-1.178-1.486-3.278-1.78-11.13-13.962-26.728-25.402-32.525C217.91-.12 220.001-.006 127.54.066 57.66.12 41.567.383 37.265 1.542M.478 128c0 47.575.122 67.038.272 43.25.149-23.787.149-62.712 0-86.5C.6 60.963.478 80.425.478 128m100.284-61.027C90.996 74.655 94.871 95 106.1 95c4.337 0 9.554-5.136 10.706-10.54 1.427-6.691-.191-12.713-4.413-16.42-4.057-3.562-8-3.924-11.631-1.067m42.845 1.067c-4.222 3.707-5.84 9.729-4.413 16.42C140.346 89.864 145.563 95 149.9 95c8.382 0 13.926-13.241 9.473-22.626-3.645-7.682-9.972-9.421-15.766-4.334m-43.036 12.531c-2.021 2.021-2.021 6.837 0 8.858 3.52 3.52 9.429.583 9.429-4.686 0-3.237-2.4-5.743-5.5-5.743-1.296 0-3.064.707-3.929 1.571m43.025.595C142.718 82.42 142 84.145 142 85s.718 2.58 1.596 3.834c2.266 3.235 7.292 2.654 9.373-1.084 1.375-2.469 1.375-3.031 0-5.5-2.081-3.738-7.107-4.319-9.373-1.084M87.04 157c-4.854 14.295-15.902 29.704-28.644 39.955-4.133 3.325-7.288 6.045-7.011 6.045 1.801 0 16.853-7.704 22.643-11.589 8.896-5.968 19.668-17.338 23.295-24.586l2.823-5.642-5.449-5.342-5.449-5.341zm74.131-1.171-5.33 5.329 2.83 5.633c3.3 6.572 12.492 16.78 20.329 22.576 5.215 3.857 23.426 13.609 25.444 13.625.52.005-.408-1.005-2.061-2.242-15.806-11.832-26.642-25.756-32.852-42.217L166.5 150.5z"/><path fill="#5e0040" fill-opacity=".807" fill-rule="evenodd" d="M41 1.119c-8.29 1.335-19.583 7.314-26.075 13.806C8.144 21.706 2.469 32.763 1.029 42c-1.366 8.76-1.366 163.24 0 172C4.18 234.212 21.788 251.82 42 254.971c8.76 1.366 163.24 1.366 172 0 9.321-1.453 20.017-6.988 27-13.971 6.848-6.848 12.749-17.979 13.665-25.779.341-2.904 1.006-5.518 1.478-5.809.471-.292.857-37.43.857-82.53 0-45.785-.381-81.764-.864-81.466-.475.293-1.14-1.818-1.477-4.691-.892-7.588-6.793-18.792-13.494-25.619C234.321 8.133 223.457 2.503 214 1.029c-8.08-1.26-165.122-1.178-173 .09m76.083 32.469C96.837 39.032 80.365 60.482 76.068 87c-3.969 24.497 3.875 50.874 19.817 66.635 5.868 5.802 16.374 12.439 17.658 11.156 1.647-1.648-6.318-31.442-10.731-40.138-2.078-4.096-1.57-6.41.719-3.279 2.293 3.135 7.513 18.523 10.051 29.626 2.939 12.859 5.04 28.165 6.315 46 1.994 27.909 9.109 38 26.793 38 6.045 0 9.239-.654 17.095-3.499 1.026-.371 1-.921-.131-2.733-.779-1.247-1.705-3.512-2.058-5.032-.633-2.729-.679-2.744-3.672-1.197-8.115 4.197-17.464 2.236-21.341-4.475-4.385-7.593-2.958-28.536 4.004-58.748 3.688-16.005 9.78-38.017 10.806-39.042 1.777-1.777 1.504 1.466-.747 8.895-1.389 4.582-4.077 14.519-5.974 22.081-3.926 15.654-3.889 15.737 4.874 10.724 21.089-12.066 34.123-42.289 30.733-71.262-4.584-39.171-33.329-65.154-63.196-57.124m-52.803 4.43c-31.993 15.987-31.993 72.977 0 88.964 7.043 3.519 14.401 4.223 13.256 1.268-3.947-10.182-5.584-29.454-3.564-41.979 2.411-14.953 8.239-27.778 17.684-38.911 5.828-6.871 5.827-6.88-1.714-10.301-3.181-1.443-6.596-2.021-12.032-2.037-6.469-.019-8.483.424-13.63 2.996m100.97.446c-2.887 1.344-5.25 2.709-5.25 3.034s2.187 3.218 4.86 6.43c9.082 10.913 14.807 23.699 17.168 38.343 1.509 9.355.788 26.85-1.43 34.729-.852 3.025-1.856 6.584-2.231 7.908-.673 2.373-.608 2.399 4.511 1.793 13.371-1.584 24.663-12.871 30.711-30.701 2.32-6.838 2.594-24.075.502-31.5-3.767-13.364-12.104-24.351-22.371-29.482-8.101-4.048-18.497-4.266-26.47-.554M.477 128c0 45.375.123 63.938.273 41.25.15-22.687.15-59.812 0-82.5C.6 64.063.477 82.625.477 128M101 81c-1.1 1.1-2 2.9-2 4 0 2.349 3.347 6 5.5 6s5.5-3.651 5.5-6-3.347-6-5.5-6c-.825 0-2.4.9-3.5 2m43.571-.429c-2.121 2.122-1.986 6.744.258 8.774 2.377 2.151 4.462 2.095 6.516-.174 4.68-5.171-1.877-13.496-6.774-8.6m-30.105 52.484c-.693 1.121 3.258 2.753 9.534 3.939 4.653.879 12.467-.103 16.042-2.017 3.32-1.776 1.186-2.97-2.532-1.417-4.422 1.848-13.112 1.845-18.358-.006-2.475-.874-4.332-1.071-4.686-.499m-28.301 25.313c-5.568 14.659-16.346 29.034-29.789 39.731-3.556 2.829-6.28 5.33-6.053 5.558.754.753 15.481-6.433 22.383-10.922 9.559-6.218 16.333-12.628 21.637-20.477 6.743-9.978 6.761-10.752.383-17.042l-5.357-5.283zm74.898-2.932c-5.117 5.181-5.278 5.509-4.209 8.574 1.638 4.701 9.405 15.161 14.869 20.025 2.627 2.339 7.76 6.199 11.406 8.579 6.646 4.337 21.836 11.755 22.569 11.021.216-.215-2.518-2.707-6.074-5.536-13.327-10.605-24.097-24.905-29.667-39.39-1.736-4.515-3.25-8.31-3.365-8.434s-2.603 2.199-5.529 5.161M118 151.858c0 3.098 11.362 4.597 17.25 2.276 3.353-1.322 3.83-3.661.5-2.451-2.92 1.06-13.743 1.02-16-.06-1.099-.525-1.75-.438-1.75.235m2 15.353c0 1.666 8.018 2.861 12 1.789 2.2-.592 4-1.397 4-1.789s-3.6-.711-8-.711-8 .32-8 .711m2.001 12.932c-.002.979 2.834 1.857 5.999 1.857 1.56 0 3.548-.273 4.418-.607 3.164-1.214 1.45-1.962-4.417-1.928-3.299.019-5.999.324-6 .678m.999 13.03c0 1.224 4.719 2.114 7.5 1.416 4.143-1.039 2.821-2.204-2.5-2.204-2.75 0-5 .355-5 .788m41 28.893c0 4.182 1.651 6.934 4.16 6.934 1.816 0 2.006-.418 1.453-3.184-.637-3.186-3.177-6.816-4.768-6.816-.465 0-.845 1.38-.845 3.066"/></svg>